<svg width="11.000000" height="16.490234" viewBox="0 0 11 16.4902" fill="none" xmlns="http://www.w3.org/2000/svg" xmlns:xlink="http://www.w3.org/1999/xlink">
	<desc>
			Created with Pixso.
	</desc>
	<defs/>
	<path id="Vector" d="M5.5 0C2.46729 0 0 2.60059 0 5.79785C0 6.87793 0.283936 7.93164 0.821045 8.8457L5.18701 16.2617C5.27051 16.4043 5.41797 16.4902 5.57642 16.4902C5.57764 16.4902 5.57886 16.4902 5.58008 16.4902C5.73975 16.4893 5.88745 16.4004 5.96948 16.2559L10.2241 8.76758C10.7317 7.87207 11 6.8457 11 5.79785C11 2.60059 8.53271 0 5.5 0ZM9.4375 8.27148L5.56934 15.0791L1.6001 8.33691C1.15308 7.57617 0.910645 6.69727 0.910645 5.79785C0.910645 3.13379 2.97266 0.959961 5.5 0.959961C8.02734 0.959961 10.0864 3.13379 10.0864 5.79785C10.0864 6.6709 9.85986 7.52637 9.4375 8.27148Z" fill="#FFFFFF" fill-opacity="1.000000" fill-rule="nonzero"/>
	<path id="Vector" d="M5.50024 2.44336C3.81519 2.44336 2.44458 3.81348 2.44458 5.49707C2.44458 7.16992 3.79297 8.55078 5.50024 8.55078C7.22827 8.55078 8.55566 7.15137 8.55566 5.49707C8.55566 3.81348 7.18506 2.44336 5.50024 2.44336ZM5.50024 7.54004C4.37109 7.54004 3.4563 6.62207 3.4563 5.49707C3.4563 4.375 4.37695 3.4541 5.50024 3.4541C6.62329 3.4541 7.54053 4.375 7.54053 5.49707C7.54053 6.60645 6.64722 7.54004 5.50024 7.54004Z" fill="#FFFFFF" fill-opacity="1.000000" fill-rule="nonzero"/>
</svg>
