<svg width="15.000000" height="15.835938" viewBox="0 0 15 15.8359" fill="none" xmlns="http://www.w3.org/2000/svg" xmlns:xlink="http://www.w3.org/1999/xlink">
	<desc>
			Created with Pixso.
	</desc>
	<defs/>
	<path id="Vector" d="M14.6145 11.6797L12.7495 9.71094C12.2356 9.16797 11.3989 9.16797 10.8848 9.71094L10.0371 10.6055C9.64771 11.0166 9.01392 11.0166 8.62451 10.6064L4.95068 6.72461C4.5603 6.3125 4.56006 5.64551 4.95068 5.2334C5.08716 5.08887 5.47925 4.6748 5.7981 4.33789C6.31006 3.79785 6.31714 2.91699 5.79761 2.36914L3.93335 0.407227C3.41919 -0.135742 2.58276 -0.135742 2.07007 0.40625C1.68628 0.807617 1.5625 0.936523 1.39038 1.11719C-0.463379 3.07422 -0.463379 6.25879 1.39038 8.21582L7.21167 14.3643C9.07007 16.3262 12.0779 16.3262 13.9363 14.3643L14.6145 13.6484C15.1284 13.1055 15.1284 12.2227 14.6145 11.6797ZM2.69019 1.06348C2.86157 0.882812 3.14038 0.882812 3.31226 1.06348L5.17651 3.02539C5.34839 3.20703 5.34839 3.50098 5.17651 3.68164L4.86572 4.00977L2.3811 1.38672L2.69019 1.06348ZM7.8335 13.708L2.01221 7.55957C0.577637 6.04492 0.498779 3.66797 1.76953 2.05371L4.24707 4.66895C3.59619 5.44824 3.62329 6.63574 4.32886 7.38086L8.00269 11.2617C8.00269 11.2617 8.00269 11.2617 8.00293 11.2617C8.70752 12.0059 9.83203 12.0361 10.571 11.3486L13.0486 13.9639C11.5249 15.3027 9.27759 15.2324 7.8335 13.708ZM13.9929 12.9922L13.6821 13.3203L11.1956 10.6953L11.5063 10.3672C11.6777 10.1865 11.9565 10.1865 12.1279 10.3672L13.9929 12.3359C14.1643 12.5166 14.1643 12.8115 13.9929 12.9922Z" fill="#FFFFFF" fill-opacity="1.000000" fill-rule="nonzero"/>
</svg>
