<svg width="74.000000" height="77.746094" viewBox="0 0 74 77.7461" fill="none" xmlns="http://www.w3.org/2000/svg" xmlns:xlink="http://www.w3.org/1999/xlink">
	<desc>
			Created with Pixso.
	</desc>
	<defs/>
	<path id="Vector" d="M22.3147 13.5635C21.6897 13.5635 21.1831 14.1084 21.1831 14.7808C21.1831 16.2575 20.0664 17.459 18.6938 17.459C17.3213 17.459 16.2048 16.2575 16.2048 14.7808C16.2048 13.3041 17.3213 12.1027 18.6938 12.1027C19.3186 12.1027 19.8254 11.5577 19.8254 10.8853C19.8254 10.213 19.3188 9.66797 18.6938 9.66797C16.0735 9.66797 13.9419 11.9616 13.9419 14.7807C13.9419 17.5997 16.0737 19.8934 18.6938 19.8934C21.314 19.8934 23.4458 17.5997 23.4458 14.7807C23.446 14.1084 22.9395 13.5635 22.3147 13.5635Z" fill="#FFFFFF" fill-opacity="1.000000" fill-rule="nonzero"/>
	<path id="Vector" d="M22.3147 27.8465C21.6897 27.8465 21.1831 28.3915 21.1831 29.0639C21.1831 30.5406 20.0664 31.742 18.6938 31.742C17.3213 31.742 16.2048 30.5406 16.2048 29.0639C16.2048 27.5872 17.3213 26.3858 18.6938 26.3858C19.3186 26.3858 19.8254 25.8408 19.8254 25.1684C19.8254 24.496 19.3188 23.951 18.6938 23.951C16.0735 23.951 13.9419 26.2447 13.9419 29.0638C13.9419 31.8828 16.0737 34.1765 18.6938 34.1765C21.314 34.1765 23.4458 31.8828 23.4458 29.0638C23.446 28.3917 22.9395 27.8465 22.3147 27.8465Z" fill="#FFFFFF" fill-opacity="1.000000" fill-rule="nonzero"/>
	<path id="Vector" d="M40.6865 31.3079L32.2385 31.3079C31.6135 31.3079 31.1069 31.8529 31.1069 32.5253C31.1069 33.1976 31.6135 33.7426 32.2385 33.7426L40.6865 33.7426C41.3113 33.7426 41.8179 33.1976 41.8179 32.5253C41.8179 31.8529 41.3115 31.3079 40.6865 31.3079Z" fill="#FFFFFF" fill-opacity="1.000000" fill-rule="nonzero"/>
	<path id="Vector" d="M40.6865 26.1139L32.2385 26.1139C31.6135 26.1139 31.1069 26.6589 31.1069 27.3313C31.1069 28.0037 31.6135 28.5486 32.2385 28.5486L40.6865 28.5486C41.3113 28.5486 41.8179 28.0037 41.8179 27.3313C41.8179 26.6589 41.3115 26.1139 40.6865 26.1139Z" fill="#FFFFFF" fill-opacity="1.000000" fill-rule="nonzero"/>
	<path id="Vector" d="M38.2727 45.5909L32.2385 45.5909C31.6135 45.5909 31.1069 46.1359 31.1069 46.8083C31.1069 47.4807 31.6135 48.0256 32.2385 48.0256L38.2727 48.0256C38.8977 48.0256 39.4043 47.4807 39.4043 46.8083C39.4043 46.1359 38.8977 45.5909 38.2727 45.5909Z" fill="#FFFFFF" fill-opacity="1.000000" fill-rule="nonzero"/>
	<path id="Vector" d="M40.6865 40.3972L32.2385 40.3972C31.6135 40.3972 31.1069 40.9421 31.1069 41.6145C31.1069 42.2869 31.6135 42.8318 32.2385 42.8318L40.6865 42.8318C41.3113 42.8318 41.8179 42.2869 41.8179 41.6145C41.8179 40.9421 41.3115 40.3972 40.6865 40.3972Z" fill="#FFFFFF" fill-opacity="1.000000" fill-rule="nonzero"/>
	<path id="Vector" d="M51.5483 17.0247L32.2385 17.0247C31.6135 17.0247 31.1069 17.5696 31.1069 18.242C31.1069 18.9144 31.6135 19.4594 32.2385 19.4594L51.5481 19.4594C52.1731 19.4594 52.6797 18.9144 52.6797 18.242C52.6797 17.5696 52.1731 17.0247 51.5483 17.0247Z" fill="#FFFFFF" fill-opacity="1.000000" fill-rule="nonzero"/>
	<path id="Vector" d="M46.7207 11.8307L32.2385 11.8307C31.6135 11.8307 31.1069 12.3757 31.1069 13.0481C31.1069 13.7205 31.6135 14.2655 32.2385 14.2655L46.7207 14.2655C47.3457 14.2655 47.8523 13.7205 47.8523 13.0481C47.8523 12.3757 47.3457 11.8307 46.7207 11.8307Z" fill="#FFFFFF" fill-opacity="1.000000" fill-rule="nonzero"/>
	<path id="Vector" d="M22.3147 42.1297C21.6897 42.1297 21.1831 42.6747 21.1831 43.3471C21.1831 44.8238 20.0664 46.0252 18.6938 46.0252C17.3213 46.0252 16.2048 44.8238 16.2048 43.3471C16.2048 41.8704 17.3213 40.6689 18.6938 40.6689C19.3186 40.6689 19.8254 40.1239 19.8254 39.4516C19.8254 38.7792 19.3188 38.2342 18.6938 38.2342C16.0735 38.2342 13.9419 40.5279 13.9419 43.3469C13.9419 46.166 16.0737 48.4597 18.6938 48.4597C21.314 48.4597 23.4458 46.166 23.4458 43.3469C23.446 42.6747 22.9395 42.1297 22.3147 42.1297Z" fill="#FFFFFF" fill-opacity="1.000000" fill-rule="nonzero"/>
	<path id="Vector" d="M58.4871 0L4.65137 0C2.08667 0 0 1.71103 0 3.81424L0 58.3499C0 60.4531 2.08643 62.1641 4.65137 62.1641L31.5693 62.1641C32.3889 62.1641 33.0537 61.6191 33.0537 60.9468C33.0537 60.2745 32.3892 59.7294 31.5693 59.7294L4.65137 59.7294C3.72363 59.7294 2.96875 59.1105 2.96875 58.3497L2.96875 3.81424C2.96875 3.0535 3.72363 2.43457 4.65137 2.43457L58.4871 2.43457C59.4148 2.43457 60.1694 3.0535 60.1694 3.81424L60.1694 44.067C60.1694 44.7392 60.834 45.2843 61.6538 45.2843C62.4736 45.2843 63.1384 44.7393 63.1384 44.067L63.1384 3.81424C63.1382 1.71103 61.0518 0 58.4871 0Z" fill="#FFFFFF" fill-opacity="1.000000" fill-rule="nonzero"/>
	<path id="Vector" d="M70.2756 49.3646C69.2239 49.2518 68.1729 49.5725 67.3411 50.252C66.6785 49.0558 65.5486 48.2071 64.2412 48.0662C63.1892 47.9535 62.1384 48.2742 61.3066 48.9536C60.644 47.7573 59.5142 46.9087 58.2068 46.7677C57.4038 46.6815 56.6018 46.8479 55.8972 47.2338L55.8972 31.7314C55.8972 30.4727 55.3994 29.2661 54.5315 28.4211C53.6641 27.5768 52.4954 27.1647 51.3247 27.2907C49.2361 27.5158 47.6001 29.5476 47.6001 31.9166L47.6001 47.4582L44.2739 51.0366C42.5066 52.9382 41.7932 55.6362 42.3657 58.2541L44.8909 69.8001C45.9138 74.4786 49.7483 77.7461 54.2156 77.7461L64.4207 77.7461C69.7026 77.7461 74 73.1227 74 67.4395L74 53.9908C74.0002 51.6215 72.3643 49.5897 70.2756 49.3646ZM71.7373 67.4391C71.7373 71.7797 68.4551 75.3111 64.4207 75.3111L54.2156 75.3111C50.8037 75.3111 47.875 72.8155 47.0935 69.242L44.5684 57.696C44.1765 55.905 44.6648 54.0588 45.874 52.7578L47.6001 50.9008L47.6001 55.1037C47.6001 55.7759 48.1064 56.321 48.7314 56.321C49.3564 56.321 49.863 55.7761 49.863 55.1037L49.863 31.9165C49.863 30.7829 50.604 29.8151 51.5503 29.7133C52.0938 29.6545 52.6138 29.8371 53.0134 30.2264C53.4082 30.6107 53.6345 31.1594 53.6345 31.7315L53.6345 53.1562C53.6345 53.8285 54.1411 54.3736 54.7659 54.3736C55.3909 54.3736 55.8975 53.8286 55.8975 53.1562L55.8975 51.2085C55.8975 50.6364 56.1238 50.0877 56.5186 49.7034C56.9185 49.3141 57.438 49.1314 57.9817 49.1903C58.9277 49.2922 59.6689 50.2601 59.6689 51.3936L59.6689 54.4544C59.6689 55.1266 60.1755 55.6718 60.8005 55.6718C61.4253 55.6718 61.9319 55.1268 61.9319 54.4544L61.9319 52.5067C61.9319 51.9345 62.1582 51.3859 62.553 51.0015C62.9531 50.6122 63.4727 50.4297 64.0161 50.4884C64.9622 50.5903 65.7036 51.5582 65.7036 52.6917L65.7036 55.7527C65.7036 56.4249 66.21 56.97 66.835 56.97C67.4597 56.97 67.9666 56.425 67.9666 55.7527L67.9666 53.8049C67.9666 53.2328 68.1926 52.6842 68.5876 52.2998C68.9875 51.9106 69.5068 51.7278 70.0505 51.7869C70.9968 51.8886 71.738 52.8565 71.738 53.9901L71.738 67.4391L71.7373 67.4391Z" fill="#FFFFFF" fill-opacity="1.000000" fill-rule="nonzero"/>
</svg>
